<svg xmlns="http://www.w3.org/2000/svg" width="91.124" height="91" viewBox="0 0 91.124 91"><defs><style>.a{fill:none;stroke:#fff;stroke-width:4px;}</style></defs><g transform="translate(2 1.65)"><path class="a" d="M67.288,45.262c.018-.444.036-.906.036-1.367,0-14.615-18.682-39.389-20.9-42.159a3.662,3.662,0,0,0-5.736,0C38.483,4.488,19.8,29.279,19.8,43.894c0,.408,0,.817.018,1.225C7.3,49.151,0,56.361,0,64.424,0,77.174,19.055,87.35,43.473,87.35S86.929,77.174,87.124,64.6C87.124,56.521,79.772,49.435,67.288,45.262ZM43.473,10.046C49.76,19.1,59.936,35.193,59.936,43.894c0,11.472-6.837,19.979-16.462,19.979S27.011,55.544,27.011,43.894C27.011,35.193,37.187,18.926,43.473,10.046Zm.178,70.094C22.2,80.14,7.405,71.811,7.405,64.424c0-4.44,5.132-9.039,13.443-12.076,2.93,11.277,11.685,18.931,22.625,18.931,10.922,0,19.659-7.618,22.7-18.842,8.471,3.019,13.728,7.512,13.728,12C79.9,71.811,65.1,80.14,43.651,80.14Z"/></g></svg>