<svg xmlns="http://www.w3.org/2000/svg" width="93.969" height="93.954" viewBox="0 0 93.969 93.954"><defs><style>.a{fill:#fff;}</style></defs><g transform="translate(-1 -0.04)"><g transform="translate(1 0.04)"><path class="a" d="M156.673,267.774a1.566,1.566,0,0,0-.783,3.033A17.251,17.251,0,0,1,168.256,283.2a1.567,1.567,0,0,0,1.517,1.178h0a1.566,1.566,0,0,0,1.518-1.955A20.387,20.387,0,0,0,156.673,267.774Z" transform="translate(-126.499 -218.588)"/><path class="a" d="M189.576,234.4a1.566,1.566,0,0,0-.783,3.034,17.251,17.251,0,0,1,12.366,12.389A1.567,1.567,0,0,0,202.676,251h0a1.567,1.567,0,0,0,1.518-1.955A20.387,20.387,0,0,0,189.576,234.4Z" transform="translate(-153.363 -191.337)"/><path class="a" d="M222.478,201.017a1.566,1.566,0,0,0-.783,3.033,17.251,17.251,0,0,1,12.366,12.389,1.567,1.567,0,0,0,1.517,1.178h0a1.567,1.567,0,0,0,1.518-1.955A20.387,20.387,0,0,0,222.478,201.017Z" transform="translate(-180.225 -164.085)"/><path class="a" d="M255.378,167.637a1.566,1.566,0,0,0-.783,3.033,17.251,17.251,0,0,1,12.366,12.389,1.567,1.567,0,0,0,1.517,1.178h0A1.567,1.567,0,0,0,270,182.282,20.387,20.387,0,0,0,255.378,167.637Z" transform="translate(-207.086 -136.832)"/><path class="a" d="M288.28,134.258a1.566,1.566,0,0,0-.783,3.033,17.251,17.251,0,0,1,12.366,12.389,1.567,1.567,0,0,0,1.517,1.178h0A1.568,1.568,0,0,0,302.9,148.9,20.387,20.387,0,0,0,288.28,134.258Z" transform="translate(-233.948 -109.58)"/><path class="a" d="M321.181,100.878a1.566,1.566,0,0,0-.783,3.033A17.251,17.251,0,0,1,332.764,116.3a1.567,1.567,0,0,0,1.517,1.178h0a1.568,1.568,0,0,0,1.518-1.955A20.387,20.387,0,0,0,321.181,100.878Z" transform="translate(-260.81 -82.327)"/><path class="a" d="M354.082,67.5a1.566,1.566,0,0,0-.783,3.033,17.251,17.251,0,0,1,12.366,12.389,1.567,1.567,0,0,0,1.517,1.178h0a1.569,1.569,0,0,0,1.518-1.955A20.386,20.386,0,0,0,354.082,67.5Z" transform="translate(-287.672 -55.075)"/><path class="a" d="M401.6,48.764a20.386,20.386,0,0,0-14.617-14.645,1.566,1.566,0,0,0-.783,3.033,17.251,17.251,0,0,1,12.366,12.389,1.568,1.568,0,0,0,1.517,1.179h0a1.569,1.569,0,0,0,1.518-1.956Z" transform="translate(-314.533 -27.822)"/><path class="a" d="M89,6a20.363,20.363,0,0,0-28.778-.019L6.969,59.242a20.363,20.363,0,0,0,28.8,28.8L89.024,34.782A20.363,20.363,0,0,0,89,6ZM27.962,89.56a17.224,17.224,0,0,1-18.778-28.1h0a17.231,17.231,0,1,1,18.778,28.1ZM86.809,32.567,41.189,78.187A20.306,20.306,0,0,0,16.821,53.819L62.441,8.2A17.231,17.231,0,1,1,86.809,32.567Z" transform="translate(-1 -0.04)"/><path class="a" d="M43.862,325.273a14.1,14.1,0,1,0,15.363,3.056A14.1,14.1,0,0,0,43.862,325.273Zm5.395,23.989A10.965,10.965,0,1,1,60.221,338.3,10.965,10.965,0,0,1,49.256,349.262Z" transform="translate(-28.889 -264.697)"/></g></g></svg>